<?xml version="1.0" encoding="UTF-8" standalone="no"?>
<svg
   xmlns:svg="http://www.w3.org/2000/svg"
   xmlns="http://www.w3.org/2000/svg"
   version="1.1"
   width="791.49628"
   height="74.793228"
   id="svg5113">
  <defs
     id="defs5115" />
  <g
     transform="translate(45.748125,-494.96557)"
     id="layer1">
    <path
       d="m 43.415269,564.7588 -28.056724,-16.19483 28.056724,-16.19859 0,32.39342 z"
       id="path166"
       style="fill:#98d5e9;fill-opacity:1;fill-rule:nonzero;stroke:none" />
    <path
       d="m -12.691402,564.7588 -28.056723,-16.19483 28.056723,-16.19859 0,32.39342 z"
       id="path170"
       style="fill:#0065a0;fill-opacity:1;fill-rule:nonzero;stroke:none" />
    <path
       d="m 15.358169,548.5651 28.056722,-16.19859 0,-32.40094 -56.105916,32.40094 28.049194,16.19859 z"
       id="path174"
       style="fill:#00a7ce;fill-opacity:1;fill-rule:nonzero;stroke:none" />
    <path
       d="m 71.465215,548.5651 -28.049194,-16.19859 28.049194,-16.19859 0,32.39718 z"
       id="path178"
       style="fill:#0065a0;fill-opacity:1;fill-rule:nonzero;stroke:none" />
    <path
       d="m 43.415269,564.7588 28.049196,-16.19483 -28.049196,-16.19859 0,32.39342 z"
       id="path182"
       style="fill:#00a7ce;fill-opacity:1;fill-rule:nonzero;stroke:none" />
    <path
       d="m -12.691402,499.96858 -28.056723,16.19859 0,32.39718 28.056723,-16.20235 0,-32.39342 z"
       id="path186"
       style="fill:#00a7ce;fill-opacity:1;fill-rule:nonzero;stroke:none" />
    <path
       d="m -12.691402,532.36576 28.049195,-16.19859 -28.049195,-16.19859 0,32.39718 z"
       id="path190"
       style="fill:#002d73;fill-opacity:1;fill-rule:nonzero;stroke:none" />
    <path
       d="m -12.691402,564.7588 28.049195,-16.19483 -28.049195,-16.19859 0,32.39342 z"
       id="path194"
       style="fill:#98d5e9;fill-opacity:1;fill-rule:nonzero;stroke:none" />
    <path
       d="m 43.415269,532.36576 28.049196,-16.19859 -28.049196,-16.19859 0,32.39718 z"
       id="path198"
       style="fill:#002d73;fill-opacity:1;fill-rule:nonzero;stroke:none" />
    <path
       d="m 281.06357,504.1946 -17.16983,43.87133 -0.23338,0 -17.65545,-43.87133 -10.54057,0 24.4014,56.33555 6.93419,0 24.02121,-56.33555 -9.75756,0 z m 17.7266,-0.006 0,56.34685 36.28589,0 0,-7.37087 -27.15324,0 0,-18.54763 23.26829,0 0,-7.37463 -23.26829,0 0,-15.67532 26.62997,0 0,-7.3784 -35.76261,0 z m -165.68901,49.7532 c -11.70379,0 -21.29947,-9.06113 -21.29947,-21.61945 0,-12.5094 9.59568,-21.53288 21.29947,-21.53288 11.66239,0 21.22795,9.02348 21.22795,21.53288 0,12.55832 -9.56556,21.61945 -21.22795,21.61945 m 0,-50.77918 c -18.00554,0 -31.07208,12.26094 -31.07208,29.15973 0,16.94771 13.06654,29.25006 31.07208,29.25006 17.9679,0 30.99678,-12.30235 30.99678,-29.25006 0,-16.89879 -13.02888,-29.15973 -30.99678,-29.15973 m 41.28437,1.03223 0,56.34307 33.76369,0 0,-7.38969 -24.6461,0 0,-48.95338 -9.11759,0 z m 43.82128,0 0,56.34307 9.29451,0 0,-47.59064 0,-8.75243 -9.29451,0 z m 153.47626,32.49618 c 9.4865,-1.10676 16.2927,-7.44992 16.2927,-16.92137 0,-5.74838 -4.24259,-15.58121 -18.87514,-15.58121 l -23.02737,0 0,56.34685 9.13265,0 0,-49.13409 11.67744,0 c 8.12376,0 11.86566,3.94894 11.86566,9.37356 0,5.4284 -4.14846,9.35099 -13.05148,9.35099 l -9.77261,0 24.25836,30.40954 11.23323,0 -19.73344,-23.84427 z m 99.97198,23.84049 -7.22781,0 -12.32117,-34.41494 -12.32493,34.41494 -7.05089,0 -20.04212,-56.33555 10.09635,0 13.90979,43.0808 0.1995,0 11.21817,-32.46117 -3.82472,-10.61963 9.25311,0 14.66644,42.82858 0.21457,0 13.01384,-42.82858 9.33593,0 -19.11606,56.33555 z m 114.38318,-12.35052 -17.77966,-43.9805 -12.85195,0 0,56.33555 8.6922,0 0,-44.01439 0.19197,0 17.65168,44.01439 7.74355,0 18.47611,-44.35695 0.19199,0 0,44.35695 8.83525,0 0,-56.33555 -12.6675,0 -18.20506,43.9805 -0.27858,0 z m -48.6368,-43.98615 -15.82966,26.59986 -14.69656,-26.59986 -11.02242,0 20.77621,34.11755 0,22.218 9.13265,0 0,-22.218 21.93942,-34.11755 -10.29964,0 z m 194.01076,43.01378 -28.42564,-43.02056 -12.16682,0 0,56.35061 9.12512,0 0,-45.46747 0.20327,0 30.05944,45.46747 10.54057,0 0,-56.35061 -9.12889,0 0,43.02056 -0.20703,0 z m -77.23825,-32.77362 8.83903,23.0236 -18.05073,0 8.91055,-23.0236 0.30115,0 z m -4.92771,-10.23941 -22.61327,56.34308 9.35098,0 6.04954,-15.71297 23.69744,0 6.0533,15.71297 9.6672,0 -22.24059,-56.34308 -9.9646,0 z"
       id="path242"
       style="fill:#00a7ce;fill-opacity:1;fill-rule:nonzero;stroke:none" />
  </g>
</svg>
